<?xml version="1.0" standalone="no"?>
<!DOCTYPE svg PUBLIC "-//W3C//DTD SVG 20010904//EN"
 "http://www.w3.org/TR/2001/REC-SVG-20010904/DTD/svg10.dtd">
<svg version="1.0" xmlns="http://www.w3.org/2000/svg"
 width="250.000000pt" height="233.000000pt" viewBox="0 0 250.000000 233.000000"
 preserveAspectRatio="xMidYMid meet">
<metadata>
Created by potrace 1.10, written by Peter Selinger 2001-2011
</metadata>
<g transform="translate(0.000000,233.000000) scale(0.100000,-0.100000)"
fill="#000000" stroke="none">
<path d="M908 1905 c-304 -296 -305 -298 -312 -330 -6 -26 4 -19 81 60 48 50
166 170 261 268 96 98 172 181 168 184 -3 3 -92 -79 -198 -182z"/>
<path d="M1270 2045 c-18 -19 -31 -37 -29 -40 3 -2 23 13 44 35 22 22 35 40
29 40 -6 0 -25 -16 -44 -35z"/>
<path d="M821 1890 c-119 -114 -194 -193 -200 -212 -15 -43 -8 -45 24 -6 15
18 106 113 202 211 97 98 173 180 170 183 -3 3 -91 -76 -196 -176z"/>
<path d="M1305 2009 c-33 -32 -57 -60 -54 -63 3 -3 34 24 69 59 80 80 67 84
-15 4z"/>
<path d="M1335 1960 c-49 -49 -85 -90 -79 -90 6 0 48 41 93 90 45 50 81 90 79
90 -2 0 -44 -40 -93 -90z"/>
<path d="M1075 1995 c-17 -16 -133 -130 -258 -252 -178 -173 -228 -227 -225
-244 2 -17 53 30 261 245 143 146 257 269 255 273 -1 5 -17 -5 -33 -22z"/>
<path d="M1360 1915 c-57 -57 -102 -107 -99 -110 3 -3 54 45 113 105 59 61
104 110 99 110 -5 0 -55 -47 -113 -105z"/>
<path d="M829 1966 c-31 -25 -74 -65 -94 -90 -40 -47 -80 -106 -72 -106 2 0
56 54 120 120 64 66 113 120 109 120 -4 0 -32 -20 -63 -44z"/>
<path d="M1390 1875 c-68 -68 -122 -127 -119 -129 3 -3 61 51 129 119 68 68
122 127 119 129 -3 3 -61 -51 -129 -119z"/>
<path d="M1411 1822 c-79 -75 -142 -142 -140 -148 2 -6 69 56 148 138 79 81
142 148 140 148 -2 0 -69 -62 -148 -138z"/>
<path d="M839 1694 c-165 -159 -245 -244 -247 -260 -2 -13 -1 -24 1 -24 4 0
261 260 417 422 46 49 81 90 78 93 -3 3 -115 -101 -249 -231z"/>
<path d="M1436 1777 c-87 -84 -157 -159 -155 -166 3 -7 73 59 163 153 87 91
156 166 154 166 -1 -1 -75 -69 -162 -153z"/>
<path d="M1451 1719 c-95 -94 -170 -173 -166 -177 5 -6 160 147 305 301 87 93
32 43 -139 -124z"/>
<path d="M1477 1673 c-103 -102 -187 -190 -185 -197 2 -6 88 76 192 181 104
106 188 195 185 197 -2 2 -89 -79 -192 -181z"/>
<path d="M839 1623 c-129 -125 -235 -233 -237 -240 -2 -8 4 -9 21 -5 39 11
482 472 453 472 -1 0 -108 -102 -237 -227z"/>
<path d="M1496 1621 c-109 -109 -197 -203 -195 -209 2 -6 93 81 203 194 109
113 197 207 195 209 -2 2 -93 -86 -203 -194z"/>
<path d="M1152 1785 c-31 -39 -28 -55 4 -23 15 14 24 32 22 39 -3 8 -12 2 -26
-16z"/>
<path d="M1585 1635 c-77 -75 -133 -134 -125 -133 13 3 280 268 269 268 -2 0
-67 -61 -144 -135z"/>
<path d="M859 1571 c-164 -161 -190 -190 -169 -190 20 -1 61 36 198 179 146
153 186 200 169 200 -2 0 -91 -85 -198 -189z"/>
<path d="M1153 1718 c-17 -18 -34 -44 -38 -58 -6 -20 0 -17 33 20 23 25 41 51
42 58 0 17 -2 16 -37 -20z"/>
<path d="M1622 1598 c-67 -66 -120 -123 -117 -126 3 -3 19 8 36 24 38 36 213
224 208 224 -2 0 -59 -55 -127 -122z"/>
<path d="M1148 1641 c-20 -20 -42 -50 -48 -66 -9 -26 -3 -23 45 27 49 51 68
81 48 77 -5 -1 -25 -18 -45 -38z"/>
<path d="M885 1525 c-130 -125 -146 -145 -124 -145 21 0 53 28 153 130 69 72
126 137 126 145 0 8 -1 15 -2 15 -2 -1 -70 -66 -153 -145z"/>
<path d="M1650 1555 c-63 -63 -110 -115 -105 -115 13 0 231 218 224 224 -3 3
-56 -46 -119 -109z"/>
<path d="M1138 1555 c-32 -29 -58 -62 -58 -72 0 -13 18 0 61 43 77 77 74 102
-3 29z"/>
<path d="M1675 1510 c-55 -55 -95 -100 -90 -100 6 0 55 45 110 100 55 55 95
100 90 100 -6 0 -55 -45 -110 -100z"/>
<path d="M917 1484 c-94 -91 -105 -105 -80 -102 21 2 36 16 66 61 22 34 45 57
56 57 21 0 56 36 66 68 3 12 5 22 3 22 -2 -1 -52 -48 -111 -106z"/>
<path d="M1140 1487 c-36 -33 -70 -74 -76 -91 -7 -22 -18 -32 -35 -34 -17 -2
-68 -46 -149 -127 -69 -69 -129 -125 -135 -125 -5 0 48 58 118 128 98 99 126
132 121 146 -6 15 -27 -2 -120 -95 -75 -75 -111 -117 -107 -128 3 -11 2 -12
-4 -4 -6 9 -14 7 -30 -5 l-22 -17 31 -34 30 -34 105 104 c167 166 345 358 341
368 -1 5 -32 -18 -68 -52z"/>
<path d="M1715 1480 c-38 -39 -65 -70 -60 -70 6 0 42 32 80 70 38 39 65 70 60
70 -6 0 -41 -32 -80 -70z"/>
<path d="M986 1267 c-197 -191 -217 -214 -202 -226 9 -8 17 -12 19 -10 1 2 94
97 205 210 124 126 203 213 200 222 -2 10 -78 -56 -222 -196z"/>
<path d="M1352 1407 c-29 -29 -52 -59 -52 -67 0 -18 97 77 103 101 3 11 4 19
3 19 -1 0 -25 -24 -54 -53z"/>
<path d="M1012 1220 c-181 -175 -202 -198 -187 -210 14 -12 22 -7 64 36 26 27
112 115 190 196 218 224 171 209 -67 -22z"/>
<path d="M1347 1332 c-20 -21 -37 -46 -37 -56 0 -24 18 -10 55 44 37 53 28 59
-18 12z"/>
<path d="M1488 1325 c-21 -18 -38 -42 -38 -52 0 -13 12 -6 45 27 24 25 44 48
45 53 0 15 -16 6 -52 -28z"/>
<path d="M616 1341 c-4 -5 -3 -19 2 -30 7 -21 8 -21 37 9 l29 30 -32 0 c-17 0
-33 -4 -36 -9z"/>
<path d="M667 1312 c-26 -26 -36 -44 -31 -55 9 -24 13 -21 68 39 46 51 47 54
25 54 -16 0 -39 -15 -62 -38z"/>
<path d="M710 1285 c-56 -57 -62 -67 -50 -79 13 -12 25 -3 88 65 65 69 71 79
50 79 -16 0 -45 -21 -88 -65z"/>
<path d="M1034 1170 c-156 -155 -179 -182 -164 -190 15 -8 46 19 189 169 154
161 187 201 164 201 -5 0 -90 -81 -189 -180z"/>
<path d="M1507 1271 c-42 -43 -77 -85 -77 -92 0 -8 41 27 90 76 50 49 90 91
90 92 0 2 -6 3 -13 3 -8 0 -48 -35 -90 -79z"/>
<path d="M1536 1231 c-65 -65 -116 -125 -114 -132 2 -8 56 40 132 119 71 72
123 132 115 132 -8 0 -68 -53 -133 -119z"/>
<path d="M1576 1198 c-136 -130 -187 -190 -173 -204 1 -2 81 78 176 176 95 99
169 180 164 180 -5 0 -80 -68 -167 -152z"/>
<path d="M762 1259 c-54 -51 -82 -85 -78 -94 3 -8 9 -15 13 -15 5 0 51 43 103
95 81 82 91 95 70 95 -17 -1 -51 -26 -108 -81z"/>
<path d="M1577 1129 c-164 -159 -207 -209 -179 -209 4 0 68 62 142 138 190
192 235 241 229 246 -3 3 -89 -76 -192 -175z"/>
<path d="M1063 1128 c-89 -88 -160 -165 -157 -170 13 -20 39 1 178 142 108
109 147 155 144 169 -2 17 -36 -12 -165 -141z"/>
<path d="M1342 1257 c-12 -13 -22 -32 -22 -43 1 -17 4 -15 25 9 14 15 25 35
25 43 0 19 -3 18 -28 -9z"/>
<path d="M1085 1079 c-113 -112 -137 -141 -125 -149 8 -5 17 -9 20 -7 22 10
260 267 260 280 0 9 -3 17 -7 16 -5 0 -71 -63 -148 -140z"/>
<path d="M1337 1182 c-19 -20 -23 -57 -6 -47 11 8 32 56 26 61 -2 2 -11 -4
-20 -14z"/>
<path d="M1590 1069 c-81 -78 -114 -115 -93 -104 43 20 157 128 194 182 17 24
29 43 27 43 -2 -1 -59 -55 -128 -121z"/>
<path d="M1115 1038 c-82 -80 -115 -118 -105 -121 8 -3 23 -8 33 -11 11 -3 41
-9 69 -12 49 -6 51 -6 99 42 43 42 64 84 42 84 -4 0 -36 -28 -70 -62 -34 -34
-65 -60 -68 -57 -2 3 27 40 65 81 98 107 93 135 -7 37 -93 -89 -123 -115 -123
-104 0 4 43 52 96 105 64 66 95 104 92 116 -2 15 -31 -8 -123 -98z"/>
<path d="M1221 926 l-35 -36 26 0 c31 0 51 21 46 50 -3 20 -6 19 -37 -14z"/>
</g>
</svg>
